<svg width="80" height="19" viewBox="0 0 80 19" fill="none" xmlns="http://www.w3.org/2000/svg">
<path d="M-0.0079999 1.368H3.016V18H-0.0079999V1.368ZM19.3118 1.368V3.984H14.1998V18H11.1518V3.984H6.03981V1.368H19.3118Z" fill="#22C6EA"/>
<path d="M39.8678 18C39.3238 17.088 38.7158 16.112 38.0438 15.072C37.3718 14.016 36.6758 12.96 35.9558 11.904C35.2358 10.832 34.4998 9.8 33.7478 8.808C33.0118 7.8 32.3078 6.896 31.6358 6.096V18H28.6598V1.368H31.1318C31.7718 2.04 32.4598 2.84 33.1958 3.768C33.9318 4.68 34.6678 5.632 35.4038 6.624C36.1558 7.616 36.8758 8.616 37.5638 9.624C38.2678 10.616 38.8918 11.544 39.4358 12.408V1.368H42.4358V18H39.8678ZM49.6174 9.672C49.6174 10.584 49.7294 11.416 49.9534 12.168C50.1774 12.904 50.4974 13.536 50.9134 14.064C51.3454 14.576 51.8654 14.976 52.4734 15.264C53.0814 15.552 53.7694 15.696 54.5374 15.696C55.2894 15.696 55.9694 15.552 56.5774 15.264C57.1854 14.976 57.6974 14.576 58.1134 14.064C58.5454 13.536 58.8734 12.904 59.0974 12.168C59.3214 11.416 59.4334 10.584 59.4334 9.672C59.4334 8.76 59.3214 7.936 59.0974 7.2C58.8734 6.448 58.5454 5.816 58.1134 5.304C57.6974 4.776 57.1854 4.368 56.5774 4.08C55.9694 3.792 55.2894 3.648 54.5374 3.648C53.7694 3.648 53.0814 3.792 52.4734 4.08C51.8654 4.368 51.3454 4.776 50.9134 5.304C50.4974 5.832 50.1774 6.464 49.9534 7.2C49.7294 7.936 49.6174 8.76 49.6174 9.672ZM62.6014 9.672C62.6014 11.096 62.3854 12.352 61.9534 13.44C61.5374 14.528 60.9614 15.44 60.2254 16.176C59.5054 16.896 58.6574 17.44 57.6814 17.808C56.7054 18.176 55.6654 18.36 54.5614 18.36C53.4574 18.36 52.4094 18.176 51.4174 17.808C50.4414 17.44 49.5854 16.896 48.8494 16.176C48.1294 15.44 47.5534 14.528 47.1214 13.44C46.6894 12.352 46.4734 11.096 46.4734 9.672C46.4734 8.248 46.6894 7 47.1214 5.928C47.5534 4.84 48.1374 3.928 48.8734 3.192C49.6254 2.456 50.4894 1.904 51.4654 1.536C52.4414 1.168 53.4734 0.983999 54.5614 0.983999C55.6494 0.983999 56.6814 1.168 57.6574 1.536C58.6334 1.904 59.4814 2.456 60.2014 3.192C60.9374 3.928 61.5214 4.84 61.9534 5.928C62.3854 7 62.6014 8.248 62.6014 9.672ZM75.8701 18C75.4061 17.056 74.8221 16.016 74.1181 14.88C73.4141 13.744 72.6781 12.648 71.9101 11.592C71.5901 12.008 71.2381 12.504 70.8541 13.08C70.4861 13.656 70.1101 14.248 69.7261 14.856C69.3581 15.448 69.0141 16.024 68.6941 16.584C68.3741 17.144 68.1181 17.616 67.9261 18H64.4941C65.2141 16.64 66.0461 15.248 66.9901 13.824C67.9341 12.384 68.9581 10.88 70.0621 9.312L64.7341 1.368H68.3341L72.0061 7.056L75.6301 1.368H79.0861L73.8301 9.288C75.0461 10.936 76.1181 12.496 77.0461 13.968C77.9901 15.44 78.7821 16.784 79.4221 18H75.8701Z" fill="#F9F9F9"/>
</svg>
