<svg width="24" height="24" viewBox="0 0 24 24" fill="none" xmlns="http://www.w3.org/2000/svg">
<path d="M8.24583 2.10646C8.81928 1.9415 9.43465 1.9689 9.9895 2.18411C10.5444 2.39932 11.0052 2.78934 11.2954 3.28926L11.3923 3.47556L12.2599 5.31478C12.5232 5.87303 12.6086 6.49281 12.5056 7.09704C12.4027 7.70126 12.1158 8.26327 11.6806 8.71316L11.5063 8.8782L10.1395 10.0948C9.89313 10.3173 10.0779 11.1788 10.969 12.6517C11.7711 13.977 12.4237 14.5959 12.7448 14.6297H12.8011L12.8706 14.6172L15.5571 13.8332C15.9181 13.7276 16.3035 13.7234 16.6669 13.8212C17.0304 13.919 17.3567 14.1146 17.6067 14.3846L17.726 14.5284L19.5043 16.879C19.8528 17.3397 20.0265 17.9 19.9967 18.4675C19.9669 19.035 19.7355 19.5758 19.3405 20.0011L19.1806 20.1586L18.4703 20.8013C17.8325 21.3776 17.0346 21.767 16.1716 21.9233C15.3085 22.0795 14.4166 21.996 13.6018 21.6827C11.066 20.7075 8.76217 18.4794 6.66931 15.021C4.57252 11.5539 3.70104 8.53186 4.09025 5.94369C4.20803 5.16133 4.5457 4.424 5.0674 3.81001C5.58911 3.19603 6.27536 2.72832 7.05328 2.45655L7.30621 2.37653L8.24583 2.10646V2.10646Z" fill="#22C6EA"/>
</svg>
