<?xml version="1.0" ?><svg xmlns="http://www.w3.org/2000/svg" xmlns:xlink="http://www.w3.org/1999/xlink"><symbol viewBox="0 0 24 24" id="heart" xmlns="http://www.w3.org/2000/svg"><path d="M7 3c-1.536 0-3.078.5-4.25 1.7-2.343 2.4-2.279 6.1 0 8.5L12 23l9.25-9.8c2.279-2.4 2.343-6.1 0-8.5-2.343-2.3-6.157-2.3-8.5 0l-.75.8-.75-.8C10.078 3.5 8.535 3 7 3z" fill="currentColor"/></symbol><symbol fill="none" viewBox="0 0 80 19" id="logo" xmlns="http://www.w3.org/2000/svg"><path d="M-.008 1.368h3.024V18H-.008V1.368Zm19.32 0v2.616H14.2V18h-3.048V3.984H6.04V1.368h13.272Z" fill="currentColor"/><path d="M39.868 18a96.7 96.7 0 0 0-1.824-2.928 119.737 119.737 0 0 0-2.088-3.168 66.489 66.489 0 0 0-2.208-3.096 50.861 50.861 0 0 0-2.112-2.712V18H28.66V1.368h2.472c.64.672 1.328 1.472 2.064 2.4a88.772 88.772 0 0 1 2.208 2.856 74.335 74.335 0 0 1 2.16 3c.704.992 1.328 1.92 1.872 2.784V1.368h3V18h-2.568Zm9.75-8.328c0 .912.111 1.744.335 2.496.224.736.544 1.368.96 1.896.432.512.952.912 1.56 1.2.608.288 1.296.432 2.064.432.752 0 1.432-.144 2.04-.432a4.352 4.352 0 0 0 1.536-1.2c.432-.528.76-1.16.984-1.896.224-.752.336-1.584.336-2.496 0-.912-.112-1.736-.336-2.472-.224-.752-.552-1.384-.984-1.896a4.241 4.241 0 0 0-1.536-1.224c-.608-.288-1.288-.432-2.04-.432-.768 0-1.456.144-2.064.432a4.462 4.462 0 0 0-1.56 1.224c-.416.528-.736 1.16-.96 1.896-.224.736-.336 1.56-.336 2.472Zm12.983 0c0 1.424-.216 2.68-.648 3.768-.416 1.088-.992 2-1.728 2.736a7.09 7.09 0 0 1-2.544 1.632 8.77 8.77 0 0 1-3.12.552 8.966 8.966 0 0 1-3.144-.552 7.327 7.327 0 0 1-2.568-1.632c-.72-.736-1.296-1.648-1.728-2.736-.432-1.088-.648-2.344-.648-3.768s.216-2.672.648-3.744c.432-1.088 1.016-2 1.752-2.736a7.403 7.403 0 0 1 2.592-1.656 8.702 8.702 0 0 1 3.096-.552c1.088 0 2.12.184 3.096.552.976.368 1.824.92 2.544 1.656.736.736 1.32 1.648 1.752 2.736.432 1.072.648 2.32.648 3.744ZM75.871 18a36.92 36.92 0 0 0-1.753-3.12 53.518 53.518 0 0 0-2.208-3.288c-.32.416-.672.912-1.056 1.488-.368.576-.744 1.168-1.128 1.776a54.428 54.428 0 0 0-1.032 1.728c-.32.56-.576 1.032-.768 1.416h-3.432a49.48 49.48 0 0 1 2.496-4.176 164.82 164.82 0 0 1 3.072-4.512l-5.328-7.944h3.6l3.672 5.688 3.624-5.688h3.456l-5.256 7.92a77.963 77.963 0 0 1 3.216 4.68A55.16 55.16 0 0 1 79.422 18H75.87Z" fill="currentColor"/></symbol><symbol fill="none" viewBox="0 0 24 24" id="male" xmlns="http://www.w3.org/2000/svg"><path d="M22 8.608v8.142a3.25 3.25 0 0 1-3.066 3.245L18.75 20H5.25a3.25 3.25 0 0 1-3.245-3.066L2 16.75V8.608l9.652 5.056a.75.75 0 0 0 .696 0L22 8.608ZM5.25 4h13.5a3.25 3.25 0 0 1 3.234 2.924L12 12.154l-9.984-5.23a3.25 3.25 0 0 1 3.048-2.919L5.25 4h13.5-13.5Z" fill="currentColor"/></symbol><symbol fill="none" viewBox="0 0 24 24" id="phone" xmlns="http://www.w3.org/2000/svg"><path d="M8.246 2.106a2.74 2.74 0 0 1 1.743.078 2.585 2.585 0 0 1 1.306 1.105l.097.187.868 1.839c.263.558.349 1.178.246 1.782a3.066 3.066 0 0 1-.825 1.616l-.175.165-1.367 1.217c-.246.222-.061 1.084.83 2.557.802 1.325 1.455 1.944 1.776 1.978h.056l.07-.013 2.686-.784c.361-.105.746-.11 1.11-.012.363.098.69.294.94.564l.119.143 1.778 2.351a2.42 2.42 0 0 1 .493 1.588 2.441 2.441 0 0 1-.657 1.534l-.16.158-.71.642a4.669 4.669 0 0 1-2.298 1.122 4.794 4.794 0 0 1-2.57-.24c-2.536-.976-4.84-3.204-6.933-6.662-2.096-3.467-2.968-6.49-2.579-9.077a4.28 4.28 0 0 1 .977-2.134 4.588 4.588 0 0 1 1.986-1.353l.253-.08.94-.27Z" fill="currentColor"/></symbol></svg>